<svg xmlns="http://www.w3.org/2000/svg" xmlns:xlink="http://www.w3.org/1999/xlink" width="250" zoomAndPan="magnify" viewBox="0 0 187.5 187.499992" height="250" preserveAspectRatio="xMidYMid meet" version="1.0"><defs><g/><clipPath id="6feafbc317"><path d="M 45.410156 17.15625 L 141.90625 17.15625 L 141.90625 113.648438 L 45.410156 113.648438 Z M 45.410156 17.15625 " clip-rule="nonzero"/></clipPath><clipPath id="e512a9a915"><rect x="0" width="163" y="0" height="37"/></clipPath><clipPath id="2361f81065"><rect x="0" width="153" y="0" height="16"/></clipPath></defs><g clip-path="url(#6feafbc317)"><path fill="#222a34" d="M 45.429688 113.296875 L 77.648438 113.296875 L 77.648438 81.59375 C 77.648438 99.378906 92.082031 113.8125 109.867188 113.8125 L 141.570312 113.8125 L 141.570312 81.59375 L 109.351562 81.59375 C 126.878906 81.59375 141.570312 67.160156 141.570312 49.375 C 141.570312 31.589844 126.878906 17.15625 109.351562 17.15625 L 45.429688 17.15625 L 45.429688 49.375 L 77.648438 49.375 C 59.863281 49.375 45.429688 63.808594 45.429688 81.59375 Z M 77.648438 81.59375 L 77.648438 49.375 L 109.351562 49.375 L 109.351562 81.59375 Z M 77.648438 81.59375 " fill-opacity="1" fill-rule="evenodd"/></g><g transform="matrix(1, 0, 0, 1, 13, 125)"><g clip-path="url(#e512a9a915)"><g fill="#222a34" fill-opacity="1"><g transform="translate(1.119314, 28.567751)"><g><path d="M 1.65625 -19.140625 C 2.082031 -19.210938 2.535156 -19.28125 3.015625 -19.34375 C 3.503906 -19.414062 3.992188 -19.46875 4.484375 -19.5 C 4.972656 -19.539062 5.445312 -19.566406 5.90625 -19.578125 C 6.375 -19.597656 6.800781 -19.609375 7.1875 -19.609375 C 8.082031 -19.609375 8.96875 -19.523438 9.84375 -19.359375 C 10.71875 -19.191406 11.5 -18.90625 12.1875 -18.5 C 12.882812 -18.101562 13.4375 -17.550781 13.84375 -16.84375 C 14.257812 -16.132812 14.46875 -15.242188 14.46875 -14.171875 C 14.46875 -12.585938 14.097656 -11.296875 13.359375 -10.296875 C 12.628906 -9.304688 11.648438 -8.617188 10.421875 -8.234375 L 11.765625 -7.375 L 16.1875 0 L 11.828125 0 L 7.4375 -7.5625 L 5.4375 -7.921875 L 5.4375 0 L 1.65625 0 Z M 7.453125 -16.25 C 7.066406 -16.25 6.6875 -16.238281 6.3125 -16.21875 C 5.9375 -16.195312 5.644531 -16.160156 5.4375 -16.109375 L 5.4375 -10.5 L 7.046875 -10.5 C 8.097656 -10.5 8.9375 -10.738281 9.5625 -11.21875 C 10.1875 -11.695312 10.5 -12.488281 10.5 -13.59375 C 10.5 -14.414062 10.238281 -15.0625 9.71875 -15.53125 C 9.207031 -16.007812 8.453125 -16.25 7.453125 -16.25 Z M 7.453125 -16.25 "/></g></g></g><g fill="#222a34" fill-opacity="1"><g transform="translate(19.483172, 28.567751)"><g><path d="M 2.046875 -19.34375 L 5.828125 -19.34375 L 5.828125 0 L 2.046875 0 Z M 2.046875 -19.34375 "/></g></g></g><g fill="#222a34" fill-opacity="1"><g transform="translate(29.093442, 28.567751)"><g><path d="M 1.65625 -19.34375 C 2.039062 -19.394531 2.476562 -19.4375 2.96875 -19.46875 C 3.457031 -19.507812 3.957031 -19.539062 4.46875 -19.5625 C 4.988281 -19.582031 5.492188 -19.59375 5.984375 -19.59375 C 6.472656 -19.601562 6.910156 -19.609375 7.296875 -19.609375 C 9.003906 -19.609375 10.46875 -19.367188 11.6875 -18.890625 C 12.90625 -18.410156 13.890625 -17.738281 14.640625 -16.875 C 15.398438 -16.007812 15.953125 -14.976562 16.296875 -13.78125 C 16.648438 -12.582031 16.828125 -11.265625 16.828125 -9.828125 C 16.828125 -8.523438 16.660156 -7.265625 16.328125 -6.046875 C 15.992188 -4.835938 15.441406 -3.757812 14.671875 -2.8125 C 13.898438 -1.875 12.878906 -1.117188 11.609375 -0.546875 C 10.347656 0.015625 8.789062 0.296875 6.9375 0.296875 C 6.632812 0.296875 6.238281 0.285156 5.75 0.265625 C 5.269531 0.253906 4.765625 0.234375 4.234375 0.203125 C 3.710938 0.179688 3.210938 0.15625 2.734375 0.125 C 2.253906 0.09375 1.894531 0.0625 1.65625 0.03125 Z M 7.59375 -16.25 C 7.1875 -16.25 6.773438 -16.238281 6.359375 -16.21875 C 5.953125 -16.195312 5.644531 -16.171875 5.4375 -16.140625 L 5.4375 -3.171875 C 5.507812 -3.160156 5.632812 -3.148438 5.8125 -3.140625 C 5.988281 -3.128906 6.175781 -3.117188 6.375 -3.109375 C 6.582031 -3.097656 6.773438 -3.085938 6.953125 -3.078125 C 7.140625 -3.066406 7.28125 -3.0625 7.375 -3.0625 C 8.445312 -3.0625 9.335938 -3.25 10.046875 -3.625 C 10.753906 -4.007812 11.3125 -4.515625 11.71875 -5.140625 C 12.132812 -5.765625 12.425781 -6.484375 12.59375 -7.296875 C 12.757812 -8.117188 12.84375 -8.960938 12.84375 -9.828125 C 12.84375 -10.585938 12.769531 -11.347656 12.625 -12.109375 C 12.476562 -12.878906 12.207031 -13.566406 11.8125 -14.171875 C 11.414062 -14.773438 10.875 -15.269531 10.1875 -15.65625 C 9.507812 -16.050781 8.644531 -16.25 7.59375 -16.25 Z M 7.59375 -16.25 "/></g></g></g><g fill="#222a34" fill-opacity="1"><g transform="translate(48.699924, 28.567751)"><g><path d="M 8.484375 -10.078125 L 15.6875 -10.078125 L 15.6875 -1.46875 C 14.914062 -0.820312 13.988281 -0.347656 12.90625 -0.046875 C 11.832031 0.242188 10.769531 0.390625 9.71875 0.390625 C 8.488281 0.390625 7.34375 0.195312 6.28125 -0.1875 C 5.226562 -0.582031 4.3125 -1.1875 3.53125 -2 C 2.757812 -2.820312 2.148438 -3.867188 1.703125 -5.140625 C 1.265625 -6.410156 1.046875 -7.921875 1.046875 -9.671875 C 1.046875 -11.492188 1.304688 -13.046875 1.828125 -14.328125 C 2.359375 -15.609375 3.050781 -16.644531 3.90625 -17.4375 C 4.757812 -18.238281 5.71875 -18.816406 6.78125 -19.171875 C 7.851562 -19.535156 8.945312 -19.71875 10.0625 -19.71875 C 11.164062 -19.71875 12.132812 -19.632812 12.96875 -19.46875 C 13.8125 -19.3125 14.476562 -19.140625 14.96875 -18.953125 L 14.203125 -15.78125 C 13.742188 -15.957031 13.226562 -16.097656 12.65625 -16.203125 C 12.082031 -16.304688 11.351562 -16.359375 10.46875 -16.359375 C 9.675781 -16.359375 8.945312 -16.238281 8.28125 -16 C 7.625 -15.757812 7.050781 -15.363281 6.5625 -14.8125 C 6.070312 -14.269531 5.691406 -13.578125 5.421875 -12.734375 C 5.160156 -11.890625 5.03125 -10.859375 5.03125 -9.640625 C 5.03125 -8.484375 5.15625 -7.484375 5.40625 -6.640625 C 5.664062 -5.804688 6.023438 -5.113281 6.484375 -4.5625 C 6.953125 -4.019531 7.492188 -3.617188 8.109375 -3.359375 C 8.722656 -3.109375 9.378906 -2.984375 10.078125 -2.984375 C 10.554688 -2.984375 11.023438 -3.039062 11.484375 -3.15625 C 11.953125 -3.28125 12.34375 -3.460938 12.65625 -3.703125 L 12.65625 -7.34375 L 8.484375 -7.796875 Z M 8.484375 -10.078125 "/></g></g></g><g fill="#222a34" fill-opacity="1"><g transform="translate(67.257073, 28.567751)"><g><path d="M 1.65625 -19.34375 L 13.125 -19.34375 L 13.125 -15.96875 L 5.4375 -15.96875 L 5.4375 -11.46875 L 12.4375 -11.46875 L 12.4375 -8.09375 L 5.4375 -8.09375 L 5.4375 -3.375 L 13.265625 -3.375 L 13.265625 0 L 1.65625 0 Z M 1.65625 -19.34375 "/></g></g></g><g fill="#222a34" fill-opacity="1"><g transform="translate(83.411825, 28.567751)"><g><path d="M 1.65625 -19.34375 L 13.125 -19.34375 L 13.125 -15.96875 L 5.4375 -15.96875 L 5.4375 -11.1875 L 12.515625 -11.1875 L 12.515625 -7.8125 L 5.4375 -7.8125 L 5.4375 0 L 1.65625 0 Z M 1.65625 -19.34375 "/></g></g></g><g fill="#222a34" fill-opacity="1"><g transform="translate(99.179978, 28.567751)"><g><path d="M 1.046875 -9.671875 C 1.046875 -12.890625 1.753906 -15.367188 3.171875 -17.109375 C 4.585938 -18.847656 6.613281 -19.71875 9.25 -19.71875 C 10.632812 -19.71875 11.84375 -19.476562 12.875 -19 C 13.90625 -18.519531 14.757812 -17.835938 15.4375 -16.953125 C 16.125 -16.078125 16.628906 -15.019531 16.953125 -13.78125 C 17.285156 -12.550781 17.453125 -11.179688 17.453125 -9.671875 C 17.453125 -6.441406 16.738281 -3.957031 15.3125 -2.21875 C 13.882812 -0.476562 11.863281 0.390625 9.25 0.390625 C 7.851562 0.390625 6.640625 0.148438 5.609375 -0.328125 C 4.578125 -0.804688 3.722656 -1.488281 3.046875 -2.375 C 2.378906 -3.257812 1.878906 -4.316406 1.546875 -5.546875 C 1.210938 -6.785156 1.046875 -8.160156 1.046875 -9.671875 Z M 5.03125 -9.671875 C 5.03125 -8.691406 5.113281 -7.789062 5.28125 -6.96875 C 5.445312 -6.15625 5.695312 -5.453125 6.03125 -4.859375 C 6.375 -4.273438 6.8125 -3.816406 7.34375 -3.484375 C 7.882812 -3.148438 8.519531 -2.984375 9.25 -2.984375 C 10.59375 -2.984375 11.632812 -3.503906 12.375 -4.546875 C 13.113281 -5.597656 13.484375 -7.304688 13.484375 -9.671875 C 13.484375 -10.609375 13.40625 -11.484375 13.25 -12.296875 C 13.09375 -13.109375 12.847656 -13.816406 12.515625 -14.421875 C 12.179688 -15.023438 11.75 -15.5 11.21875 -15.84375 C 10.6875 -16.1875 10.03125 -16.359375 9.25 -16.359375 C 7.90625 -16.359375 6.863281 -15.816406 6.125 -14.734375 C 5.394531 -13.660156 5.03125 -11.972656 5.03125 -9.671875 Z M 5.03125 -9.671875 "/></g></g></g><g fill="#222a34" fill-opacity="1"><g transform="translate(119.421579, 28.567751)"><g><path d="M 1.65625 -19.140625 C 2.082031 -19.210938 2.535156 -19.28125 3.015625 -19.34375 C 3.503906 -19.414062 3.992188 -19.46875 4.484375 -19.5 C 4.972656 -19.539062 5.445312 -19.566406 5.90625 -19.578125 C 6.375 -19.597656 6.800781 -19.609375 7.1875 -19.609375 C 8.082031 -19.609375 8.96875 -19.523438 9.84375 -19.359375 C 10.71875 -19.191406 11.5 -18.90625 12.1875 -18.5 C 12.882812 -18.101562 13.4375 -17.550781 13.84375 -16.84375 C 14.257812 -16.132812 14.46875 -15.242188 14.46875 -14.171875 C 14.46875 -12.585938 14.097656 -11.296875 13.359375 -10.296875 C 12.628906 -9.304688 11.648438 -8.617188 10.421875 -8.234375 L 11.765625 -7.375 L 16.1875 0 L 11.828125 0 L 7.4375 -7.5625 L 5.4375 -7.921875 L 5.4375 0 L 1.65625 0 Z M 7.453125 -16.25 C 7.066406 -16.25 6.6875 -16.238281 6.3125 -16.21875 C 5.9375 -16.195312 5.644531 -16.160156 5.4375 -16.109375 L 5.4375 -10.5 L 7.046875 -10.5 C 8.097656 -10.5 8.9375 -10.738281 9.5625 -11.21875 C 10.1875 -11.695312 10.5 -12.488281 10.5 -13.59375 C 10.5 -14.414062 10.238281 -15.0625 9.71875 -15.53125 C 9.207031 -16.007812 8.453125 -16.25 7.453125 -16.25 Z M 7.453125 -16.25 "/></g></g></g><g fill="#222a34" fill-opacity="1"><g transform="translate(137.785437, 28.567751)"><g><path d="M 16.65625 -10.03125 L 17.078125 -13.875 L 16.90625 -13.875 L 15.71875 -10.78125 L 11.609375 -3.5625 L 10.390625 -3.5625 L 6.046875 -10.796875 L 4.828125 -13.875 L 4.703125 -13.875 L 5.25 -10.0625 L 5.25 0 L 1.65625 0 L 1.65625 -19.34375 L 5.109375 -19.34375 L 10.28125 -10.5 L 11.1875 -8.28125 L 11.296875 -8.28125 L 12.125 -10.546875 L 17.015625 -19.34375 L 20.4375 -19.34375 L 20.4375 0 L 16.65625 0 Z M 16.65625 -10.03125 "/></g></g></g></g></g><g transform="matrix(1, 0, 0, 1, 20, 155)"><g clip-path="url(#2361f81065)"><g fill="#222a34" fill-opacity="1"><g transform="translate(1.072306, 11.691263)"><g><path d="M 6.15625 -0.328125 C 5.90625 -0.148438 5.585938 -0.0234375 5.203125 0.046875 C 4.828125 0.117188 4.441406 0.15625 4.046875 0.15625 C 3.554688 0.15625 3.09375 0.0820312 2.65625 -0.0625 C 2.226562 -0.207031 1.847656 -0.445312 1.515625 -0.78125 C 1.191406 -1.125 0.929688 -1.5625 0.734375 -2.09375 C 0.535156 -2.625 0.4375 -3.269531 0.4375 -4.03125 C 0.4375 -4.820312 0.546875 -5.484375 0.765625 -6.015625 C 0.984375 -6.546875 1.265625 -6.972656 1.609375 -7.296875 C 1.960938 -7.628906 2.351562 -7.863281 2.78125 -8 C 3.21875 -8.144531 3.648438 -8.21875 4.078125 -8.21875 C 4.535156 -8.21875 4.921875 -8.1875 5.234375 -8.125 C 5.554688 -8.0625 5.820312 -7.988281 6.03125 -7.90625 L 5.71875 -6.578125 C 5.539062 -6.660156 5.332031 -6.71875 5.09375 -6.75 C 4.851562 -6.789062 4.5625 -6.8125 4.21875 -6.8125 C 3.582031 -6.8125 3.066406 -6.582031 2.671875 -6.125 C 2.285156 -5.675781 2.09375 -4.976562 2.09375 -4.03125 C 2.09375 -3.613281 2.140625 -3.234375 2.234375 -2.890625 C 2.328125 -2.554688 2.46875 -2.265625 2.65625 -2.015625 C 2.84375 -1.773438 3.078125 -1.585938 3.359375 -1.453125 C 3.640625 -1.316406 3.960938 -1.25 4.328125 -1.25 C 4.671875 -1.25 4.960938 -1.285156 5.203125 -1.359375 C 5.441406 -1.429688 5.648438 -1.519531 5.828125 -1.625 Z M 6.15625 -0.328125 "/></g></g></g><g fill="#222a34" fill-opacity="1"><g transform="translate(13.398969, 11.691263)"><g><path d="M 0.4375 -4.03125 C 0.4375 -5.375 0.734375 -6.40625 1.328125 -7.125 C 1.921875 -7.851562 2.765625 -8.21875 3.859375 -8.21875 C 4.429688 -8.21875 4.929688 -8.117188 5.359375 -7.921875 C 5.796875 -7.722656 6.15625 -7.4375 6.4375 -7.0625 C 6.71875 -6.695312 6.925781 -6.253906 7.0625 -5.734375 C 7.207031 -5.222656 7.28125 -4.65625 7.28125 -4.03125 C 7.28125 -2.6875 6.984375 -1.648438 6.390625 -0.921875 C 5.796875 -0.203125 4.953125 0.15625 3.859375 0.15625 C 3.273438 0.15625 2.765625 0.0546875 2.328125 -0.140625 C 1.898438 -0.335938 1.546875 -0.617188 1.265625 -0.984375 C 0.992188 -1.359375 0.785156 -1.800781 0.640625 -2.3125 C 0.503906 -2.832031 0.4375 -3.40625 0.4375 -4.03125 Z M 2.09375 -4.03125 C 2.09375 -3.625 2.125 -3.25 2.1875 -2.90625 C 2.257812 -2.5625 2.367188 -2.265625 2.515625 -2.015625 C 2.660156 -1.773438 2.84375 -1.585938 3.0625 -1.453125 C 3.28125 -1.316406 3.546875 -1.25 3.859375 -1.25 C 4.421875 -1.25 4.851562 -1.46875 5.15625 -1.90625 C 5.46875 -2.34375 5.625 -3.050781 5.625 -4.03125 C 5.625 -4.425781 5.585938 -4.789062 5.515625 -5.125 C 5.453125 -5.457031 5.351562 -5.75 5.21875 -6 C 5.082031 -6.257812 4.898438 -6.457031 4.671875 -6.59375 C 4.453125 -6.738281 4.179688 -6.8125 3.859375 -6.8125 C 3.296875 -6.8125 2.859375 -6.585938 2.546875 -6.140625 C 2.242188 -5.691406 2.09375 -4.988281 2.09375 -4.03125 Z M 2.09375 -4.03125 "/></g></g></g><g fill="#222a34" fill-opacity="1"><g transform="translate(27.003755, 11.691263)"><g><path d="M 2.6875 -4.203125 L 2.0625 -5.46875 L 2 -5.46875 L 2.1875 -4.203125 L 2.1875 0 L 0.6875 0 L 0.6875 -8.125 L 1.84375 -8.125 L 4.890625 -3.828125 L 5.5 -2.59375 L 5.5625 -2.59375 L 5.375 -3.828125 L 5.375 -8.0625 L 6.875 -8.0625 L 6.875 0.0625 L 5.71875 0.0625 Z M 2.6875 -4.203125 "/></g></g></g><g fill="#222a34" fill-opacity="1"><g transform="translate(40.458849, 11.691263)"><g><path d="M 4.171875 -2.171875 C 4.171875 -2.410156 4.078125 -2.609375 3.890625 -2.765625 C 3.710938 -2.921875 3.488281 -3.0625 3.21875 -3.1875 C 2.945312 -3.3125 2.648438 -3.441406 2.328125 -3.578125 C 2.015625 -3.710938 1.71875 -3.875 1.4375 -4.0625 C 1.164062 -4.257812 0.941406 -4.503906 0.765625 -4.796875 C 0.585938 -5.085938 0.5 -5.460938 0.5 -5.921875 C 0.5 -6.304688 0.5625 -6.644531 0.6875 -6.9375 C 0.820312 -7.226562 1.007812 -7.46875 1.25 -7.65625 C 1.488281 -7.851562 1.773438 -7.992188 2.109375 -8.078125 C 2.441406 -8.171875 2.8125 -8.21875 3.21875 -8.21875 C 3.6875 -8.21875 4.125 -8.175781 4.53125 -8.09375 C 4.945312 -8.019531 5.289062 -7.90625 5.5625 -7.75 L 5.0625 -6.421875 C 4.894531 -6.535156 4.640625 -6.632812 4.296875 -6.71875 C 3.960938 -6.8125 3.601562 -6.859375 3.21875 -6.859375 C 2.84375 -6.859375 2.554688 -6.785156 2.359375 -6.640625 C 2.171875 -6.492188 2.078125 -6.296875 2.078125 -6.046875 C 2.078125 -5.816406 2.164062 -5.625 2.34375 -5.46875 C 2.519531 -5.3125 2.742188 -5.164062 3.015625 -5.03125 C 3.296875 -4.90625 3.59375 -4.773438 3.90625 -4.640625 C 4.226562 -4.503906 4.523438 -4.335938 4.796875 -4.140625 C 5.066406 -3.941406 5.289062 -3.695312 5.46875 -3.40625 C 5.65625 -3.125 5.75 -2.769531 5.75 -2.34375 C 5.75 -1.90625 5.675781 -1.53125 5.53125 -1.21875 C 5.382812 -0.914062 5.179688 -0.660156 4.921875 -0.453125 C 4.671875 -0.242188 4.363281 -0.09375 4 0 C 3.632812 0.101562 3.234375 0.15625 2.796875 0.15625 C 2.222656 0.15625 1.71875 0.101562 1.28125 0 C 0.84375 -0.101562 0.519531 -0.210938 0.3125 -0.328125 L 0.8125 -1.671875 C 0.894531 -1.617188 1.003906 -1.566406 1.140625 -1.515625 C 1.273438 -1.460938 1.425781 -1.410156 1.59375 -1.359375 C 1.769531 -1.316406 1.953125 -1.28125 2.140625 -1.25 C 2.328125 -1.21875 2.519531 -1.203125 2.71875 -1.203125 C 3.1875 -1.203125 3.546875 -1.28125 3.796875 -1.4375 C 4.046875 -1.601562 4.171875 -1.847656 4.171875 -2.171875 Z M 4.171875 -2.171875 "/></g></g></g><g fill="#222a34" fill-opacity="1"><g transform="translate(52.451598, 11.691263)"><g><path d="M 6.421875 -6.65625 L 4.0625 -6.65625 L 4.0625 0 L 2.484375 0 L 2.484375 -6.65625 L 0.125 -6.65625 L 0.125 -8.0625 L 6.421875 -8.0625 Z M 6.421875 -6.65625 "/></g></g></g><g fill="#222a34" fill-opacity="1"><g transform="translate(64.881894, 11.691263)"><g><path d="M 0.6875 -7.984375 C 0.863281 -8.015625 1.050781 -8.039062 1.25 -8.0625 C 1.457031 -8.09375 1.660156 -8.113281 1.859375 -8.125 C 2.066406 -8.144531 2.265625 -8.15625 2.453125 -8.15625 C 2.648438 -8.164062 2.832031 -8.171875 3 -8.171875 C 3.375 -8.171875 3.742188 -8.132812 4.109375 -8.0625 C 4.472656 -8 4.796875 -7.882812 5.078125 -7.71875 C 5.367188 -7.550781 5.597656 -7.316406 5.765625 -7.015625 C 5.941406 -6.722656 6.03125 -6.351562 6.03125 -5.90625 C 6.03125 -5.25 5.875 -4.710938 5.5625 -4.296875 C 5.257812 -3.878906 4.851562 -3.59375 4.34375 -3.4375 L 4.90625 -3.078125 L 6.75 0 L 4.921875 0 L 3.09375 -3.15625 L 2.265625 -3.3125 L 2.265625 0 L 0.6875 0 Z M 3.109375 -6.765625 C 2.953125 -6.765625 2.789062 -6.757812 2.625 -6.75 C 2.46875 -6.75 2.347656 -6.738281 2.265625 -6.71875 L 2.265625 -4.375 L 2.9375 -4.375 C 3.375 -4.375 3.722656 -4.472656 3.984375 -4.671875 C 4.242188 -4.867188 4.375 -5.203125 4.375 -5.671875 C 4.375 -6.015625 4.265625 -6.28125 4.046875 -6.46875 C 3.835938 -6.664062 3.523438 -6.765625 3.109375 -6.765625 Z M 3.109375 -6.765625 "/></g></g></g><g fill="#222a34" fill-opacity="1"><g transform="translate(77.70369, 11.691263)"><g><path d="M 5.0625 -8.0625 L 6.5625 -8.0625 L 6.5625 -2.859375 C 6.5625 -2.335938 6.492188 -1.882812 6.359375 -1.5 C 6.222656 -1.125 6.03125 -0.8125 5.78125 -0.5625 C 5.53125 -0.320312 5.226562 -0.144531 4.875 -0.03125 C 4.53125 0.0820312 4.144531 0.140625 3.71875 0.140625 C 1.675781 0.140625 0.65625 -0.789062 0.65625 -2.65625 L 0.65625 -8.0625 L 2.234375 -8.0625 L 2.234375 -2.96875 C 2.234375 -2.65625 2.257812 -2.390625 2.3125 -2.171875 C 2.375 -1.953125 2.46875 -1.773438 2.59375 -1.640625 C 2.71875 -1.503906 2.867188 -1.40625 3.046875 -1.34375 C 3.234375 -1.289062 3.453125 -1.265625 3.703125 -1.265625 C 4.179688 -1.265625 4.523438 -1.398438 4.734375 -1.671875 C 4.953125 -1.941406 5.0625 -2.375 5.0625 -2.96875 Z M 5.0625 -8.0625 "/></g></g></g><g fill="#222a34" fill-opacity="1"><g transform="translate(90.813343, 11.691263)"><g><path d="M 6.15625 -0.328125 C 5.90625 -0.148438 5.585938 -0.0234375 5.203125 0.046875 C 4.828125 0.117188 4.441406 0.15625 4.046875 0.15625 C 3.554688 0.15625 3.09375 0.0820312 2.65625 -0.0625 C 2.226562 -0.207031 1.847656 -0.445312 1.515625 -0.78125 C 1.191406 -1.125 0.929688 -1.5625 0.734375 -2.09375 C 0.535156 -2.625 0.4375 -3.269531 0.4375 -4.03125 C 0.4375 -4.820312 0.546875 -5.484375 0.765625 -6.015625 C 0.984375 -6.546875 1.265625 -6.972656 1.609375 -7.296875 C 1.960938 -7.628906 2.351562 -7.863281 2.78125 -8 C 3.21875 -8.144531 3.648438 -8.21875 4.078125 -8.21875 C 4.535156 -8.21875 4.921875 -8.1875 5.234375 -8.125 C 5.554688 -8.0625 5.820312 -7.988281 6.03125 -7.90625 L 5.71875 -6.578125 C 5.539062 -6.660156 5.332031 -6.71875 5.09375 -6.75 C 4.851562 -6.789062 4.5625 -6.8125 4.21875 -6.8125 C 3.582031 -6.8125 3.066406 -6.582031 2.671875 -6.125 C 2.285156 -5.675781 2.09375 -4.976562 2.09375 -4.03125 C 2.09375 -3.613281 2.140625 -3.234375 2.234375 -2.890625 C 2.328125 -2.554688 2.46875 -2.265625 2.65625 -2.015625 C 2.84375 -1.773438 3.078125 -1.585938 3.359375 -1.453125 C 3.640625 -1.316406 3.960938 -1.25 4.328125 -1.25 C 4.671875 -1.25 4.960938 -1.285156 5.203125 -1.359375 C 5.441406 -1.429688 5.648438 -1.519531 5.828125 -1.625 Z M 6.15625 -0.328125 "/></g></g></g><g fill="#222a34" fill-opacity="1"><g transform="translate(103.140006, 11.691263)"><g><path d="M 6.421875 -6.65625 L 4.0625 -6.65625 L 4.0625 0 L 2.484375 0 L 2.484375 -6.65625 L 0.125 -6.65625 L 0.125 -8.0625 L 6.421875 -8.0625 Z M 6.421875 -6.65625 "/></g></g></g><g fill="#222a34" fill-opacity="1"><g transform="translate(115.570303, 11.691263)"><g><path d="M 0.859375 -8.0625 L 2.4375 -8.0625 L 2.4375 0 L 0.859375 0 Z M 0.859375 -8.0625 "/></g></g></g><g fill="#222a34" fill-opacity="1"><g transform="translate(124.741982, 11.691263)"><g><path d="M 0.4375 -4.03125 C 0.4375 -5.375 0.734375 -6.40625 1.328125 -7.125 C 1.921875 -7.851562 2.765625 -8.21875 3.859375 -8.21875 C 4.429688 -8.21875 4.929688 -8.117188 5.359375 -7.921875 C 5.796875 -7.722656 6.15625 -7.4375 6.4375 -7.0625 C 6.71875 -6.695312 6.925781 -6.253906 7.0625 -5.734375 C 7.207031 -5.222656 7.28125 -4.65625 7.28125 -4.03125 C 7.28125 -2.6875 6.984375 -1.648438 6.390625 -0.921875 C 5.796875 -0.203125 4.953125 0.15625 3.859375 0.15625 C 3.273438 0.15625 2.765625 0.0546875 2.328125 -0.140625 C 1.898438 -0.335938 1.546875 -0.617188 1.265625 -0.984375 C 0.992188 -1.359375 0.785156 -1.800781 0.640625 -2.3125 C 0.503906 -2.832031 0.4375 -3.40625 0.4375 -4.03125 Z M 2.09375 -4.03125 C 2.09375 -3.625 2.125 -3.25 2.1875 -2.90625 C 2.257812 -2.5625 2.367188 -2.265625 2.515625 -2.015625 C 2.660156 -1.773438 2.84375 -1.585938 3.0625 -1.453125 C 3.28125 -1.316406 3.546875 -1.25 3.859375 -1.25 C 4.421875 -1.25 4.851562 -1.46875 5.15625 -1.90625 C 5.46875 -2.34375 5.625 -3.050781 5.625 -4.03125 C 5.625 -4.425781 5.585938 -4.789062 5.515625 -5.125 C 5.453125 -5.457031 5.351562 -5.75 5.21875 -6 C 5.082031 -6.257812 4.898438 -6.457031 4.671875 -6.59375 C 4.453125 -6.738281 4.179688 -6.8125 3.859375 -6.8125 C 3.296875 -6.8125 2.859375 -6.585938 2.546875 -6.140625 C 2.242188 -5.691406 2.09375 -4.988281 2.09375 -4.03125 Z M 2.09375 -4.03125 "/></g></g></g><g fill="#222a34" fill-opacity="1"><g transform="translate(138.346768, 11.691263)"><g><path d="M 2.6875 -4.203125 L 2.0625 -5.46875 L 2 -5.46875 L 2.1875 -4.203125 L 2.1875 0 L 0.6875 0 L 0.6875 -8.125 L 1.84375 -8.125 L 4.890625 -3.828125 L 5.5 -2.59375 L 5.5625 -2.59375 L 5.375 -3.828125 L 5.375 -8.0625 L 6.875 -8.0625 L 6.875 0.0625 L 5.71875 0.0625 Z M 2.6875 -4.203125 "/></g></g></g></g></g></svg>